<?xml version="1.0" encoding="utf-8"?>
<!-- Generator: Adobe Illustrator 19.2.1, SVG Export Plug-In . SVG Version: 6.00 Build 0)  -->
<svg version="1.1" id="Layer_1" xmlns="http://www.w3.org/2000/svg" xmlns:xlink="http://www.w3.org/1999/xlink" x="0px" y="0px"
	 viewBox="0 0 222 33.7" style="enable-background:new 0 0 222 33.7;" xml:space="preserve">
<style type="text/css">
	.st0{fill:#6CAB36;}
	.st1{fill:#094370;}
</style>
<title>logo</title>
<path class="st0" d="M16.9,27.5c-2,0.8-4.2,1.1-6.3,1.1C4.3,28.6,0,24.7,0,18.4c-0.2-4.8,2.1-9.3,6-12c2.6-1.7,5.7-2.6,8.8-2.6
	c1.8-0.1,3.6,0.3,5.2,1L18.7,9c-1.4-0.6-2.8-0.8-4.3-0.8c-2,0-3.9,0.6-5.5,1.9c-2.2,1.9-3.4,4.8-3.3,7.7c0,3.8,2.1,6.4,6.3,6.4
	c1.6,0,3.1-0.2,4.6-0.8L16.9,27.5z"/>
<path class="st0" d="M33.7,18h-8.5l-1.1,5.8h9.6l-0.8,4.4H18.1l4.5-23.9h14.2L36,8.6h-9l-1,5.1h8.5L33.7,18z"/>
<g>
	<path class="st1" d="M54,27.6c-2,0.7-4.2,1.1-6.3,1c-6.5,0-10.9-3.9-10.9-10.3c0-5.8,2.6-9.9,6.4-12.2c2.6-1.5,5.6-2.3,8.7-2.2
		c1.8,0,3.6,0.3,5.3,1l-1.6,4.9C54.1,9.3,52.7,9,51.3,9c-1.7,0-3.4,0.5-4.9,1.5c-2.1,1.7-3.3,4.4-3.2,7.1c0,3.6,2.3,5.8,6,5.8
		c1.5,0,2.9-0.2,4.3-0.7L54,27.6z"/>
	<path class="st1" d="M72,18.5h-8.4L62.7,23h9.4l-1,5.1H55.7l4.5-23.9h15l-1,5.1h-8.9l-0.8,4H73L72,18.5z"/>
	<path class="st1" d="M73.9,28.2l4.5-23.9h7.2l2.2,7.2c0.9,3.2,1.6,5.9,2.2,8.8h0.1c0.2-3,0.5-6.1,1.1-9.1l1.3-7h5.7l-4.5,23.9h-6.3
		l-2.4-7.8c-1-3.4-1.7-5.8-2.4-9h-0.2c-0.3,2.4-0.9,6.2-1.6,10.2l-1.2,6.6L73.9,28.2L73.9,28.2z"/>
	<path class="st1" d="M105.1,9.5h-6l1-5.3h18.2l-1,5.3h-6.1l-3.5,18.6h-6L105.1,9.5z"/>
	<path class="st1" d="M120.3,4.8c2.3-0.5,4.6-0.7,6.9-0.7c2.3-0.1,4.5,0.3,6.6,1.2c1.9,0.9,3.1,2.9,3,5c0,3.6-2.2,5.6-5.3,6.7v0.1
		c1.3,0.7,1.9,2.2,2.1,4.2c0.3,2.4,0.5,5.9,1,6.9h-6.2c-0.4-1.8-0.6-3.7-0.7-5.6c-0.3-2.7-1.1-3.4-3-3.4h-1.1l-1.7,9h-6L120.3,4.8z
		 M124.4,14.7h1.9c2.3,0,4.2-1.4,4.2-3.5c0-1.6-1.5-2.4-3.3-2.4c-0.6,0-1.2,0-1.8,0.1L124.4,14.7z"/>
	<path class="st1" d="M144.4,22.5l-2.4,5.6h-6.5l11.4-23.9h7.9l2.6,23.9H151l-0.3-5.6H144.4L144.4,22.5z M150.4,18l-0.3-4.4
		c-0.1-1.4-0.2-3.3-0.3-4.8h-0.1c-0.6,1.5-1.3,3.5-1.9,4.8l-1.8,4.4H150.4L150.4,18z"/>
	<path class="st1" d="M163.4,4.3h6.1l-3.5,18.6h9l-1,5.3h-15L163.4,4.3z"/>
	<path class="st1" d="M206.1,11.6c0.2,0.2,0.4,0.4,0.6,0.6c0.2,0.2,0.5,0.3,0.7,0.5c0.3,0.1,0.5,0.3,0.8,0.4
		c0.3,0.1,0.5,0.2,0.8,0.3c0.3,0.1,0.5,0.1,0.8,0.1c0.3,0,0.5,0,0.8,0c0.3,0,0.5,0,0.8-0.1c0.2-0.1,0.5-0.1,0.7-0.2
		c0.5-0.3,0.9-0.7,1.2-1.2c0.4-0.6,0.7-1.2,1-1.8c0.3-0.6,0.6-1.2,0.7-1.6s0.3-0.8,0.3-0.8l-1.3-0.1c-0.7-0.1-1.7-0.1-2.7-0.2
		s-2-0.1-2.9-0.1c-0.7,0-1.4,0.1-2.1,0.3c-0.4,0.1-0.7,0.4-1,0.7c-0.2,0.3-0.4,0.6-0.4,1c0,0.4,0,0.8,0.2,1.2
		C205.4,10.8,205.7,11.3,206.1,11.6z"/>
	<path class="st1" d="M194.4,7.7c0.3-0.3,0.4-0.6,0.5-1c0.1-0.4,0-0.8-0.1-1.1c-0.2-0.4-0.4-0.8-0.8-1.2c-0.6-0.5-1.2-0.9-1.9-1.3
		c-0.9-0.5-1.9-1-2.8-1.4s-1.9-0.8-2.6-1.2L185.3,0c0,0.1,0,0.4,0.1,0.9s0.1,1.2,0.2,1.9c0.1,0.8,0.3,1.5,0.5,2.2
		c0.2,0.6,0.4,1.2,0.9,1.7c0.2,0.2,0.4,0.4,0.6,0.6c0.2,0.2,0.5,0.3,0.7,0.5c0.3,0.1,0.5,0.3,0.8,0.4c0.3,0.1,0.5,0.2,0.8,0.3
		c0.3,0.1,0.6,0.1,0.9,0.1c0.3,0,0.6,0,0.9,0c0.3,0,0.5,0,0.8-0.1c0.3,0,0.5-0.1,0.8-0.2C193.6,8.2,194,8,194.4,7.7z"/>
	<path class="st1" d="M220.8,19.3c-0.7-0.5-1.6-1.1-2.6-1.7s-2-1.3-2.9-1.8c-0.7-0.4-1.5-0.8-2.3-1.1c-0.5-0.1-1.1-0.2-1.7-0.2
		c-0.5,0-1,0.1-1.4,0.3c-0.4,0.2-0.7,0.4-1,0.8c-0.3,0.3-0.4,0.7-0.4,1.1c0,0.5,0.1,0.9,0.3,1.4c0.2,0.5,0.5,0.9,0.9,1.3
		c0.4,0.4,0.8,0.8,1.3,1.1c0.5,0.3,1.1,0.5,1.8,0.7c0.8,0.1,1.6,0.2,2.5,0.1c1-0.1,2-0.2,3-0.4s1.9-0.4,2.6-0.5s1.1-0.3,1.2-0.3
		L220.8,19.3z"/>
	<path class="st1" d="M181.6,13.2c0.8,0.5,1.6,0.9,2.4,1.1c0.6,0.2,1.3,0.2,1.9,0.2c0.6,0,1.1-0.1,1.7-0.3c0.5-0.2,0.9-0.4,1.2-0.8
		c0.3-0.3,0.5-0.7,0.6-1.1c0.1-0.4,0.1-0.9-0.1-1.3c-0.2-0.4-0.4-0.9-0.7-1.2c-0.4-0.4-0.8-0.7-1.3-1c-0.5-0.3-1.1-0.5-1.7-0.7
		c-0.9-0.2-1.7-0.2-2.6-0.2c-1,0-2.2,0.1-3.4,0.2s-2.2,0.3-3,0.4l-1.5,0.2c0.1,0.1,0.5,0.4,1.1,0.9s1.5,1.1,2.4,1.7
		S180.7,12.7,181.6,13.2z"/>
	<path class="st1" d="M214.1,27.7c-0.3-1-0.7-1.9-1.1-2.9c-0.3-0.7-0.7-1.4-1.3-2.1c-0.2-0.2-0.5-0.4-0.7-0.6
		c-0.2-0.2-0.5-0.4-0.8-0.5c-0.3-0.2-0.6-0.3-0.8-0.4c-0.3-0.1-0.5-0.2-0.8-0.2c-0.3-0.1-0.6-0.1-0.9-0.1c-0.6-0.1-1.1,0-1.7,0.1
		c-0.3,0.1-0.5,0.2-0.8,0.3c-0.4,0.2-0.8,0.5-1.1,0.9c-0.3,0.4-0.4,0.8-0.5,1.3c0,0.5,0,1,0.2,1.5c0.2,0.5,0.5,1,0.9,1.5
		c0.7,0.6,1.5,1.2,2.3,1.6c1,0.6,2.2,1.2,3.4,1.8s2.3,1,3.1,1.4l1.6,0.7c0-0.1-0.1-0.6-0.3-1.4S214.4,28.7,214.1,27.7z"/>
	<path class="st1" d="M191.3,17.8c-0.2-0.2-0.4-0.4-0.6-0.6c-0.2-0.2-0.5-0.4-0.8-0.5c-0.3-0.2-0.5-0.3-0.8-0.4
		c-0.3-0.1-0.6-0.2-0.9-0.3c-0.3-0.1-0.6-0.1-0.9-0.1c-0.3,0-0.6,0-0.9,0c-0.3,0-0.6,0.1-0.9,0.1c-0.3,0.1-0.6,0.1-0.9,0.3
		c-0.7,0.3-1.3,0.8-1.8,1.4c-0.7,0.7-1.3,1.4-1.9,2.2c-0.6,0.8-1.1,1.6-1.5,2.2s-0.7,1-0.7,1.1l1.7,0.1c1,0,2.2,0.1,3.5,0.1
		s2.6,0,3.8-0.1c0.9,0,1.8-0.2,2.7-0.5c0.5-0.2,1-0.6,1.3-1c0.3-0.4,0.5-0.8,0.6-1.3c0.1-0.5,0-0.9-0.1-1.4
		C192,18.7,191.7,18.2,191.3,17.8z"/>
	<path class="st1" d="M201.3,23.5c-0.4-0.4-0.9-0.8-1.4-1.1c-0.6-0.3-1.2-0.6-1.8-0.7c-0.6-0.1-1.3-0.2-1.9-0.2
		c-0.6,0-1.1,0.2-1.6,0.4c-0.5,0.2-0.9,0.5-1.2,0.9c-0.3,0.4-0.5,0.9-0.6,1.4c0,0.8,0.1,1.5,0.4,2.3c0.3,1,0.8,2.1,1.2,3.1
		c0.5,1,1,2,1.4,2.8s0.7,1.3,0.7,1.4c0.1-0.1,0.5-0.4,1.1-1s1.3-1.2,2.1-2c0.7-0.7,1.4-1.5,2-2.3c0.5-0.6,0.8-1.2,1-1.9
		c0-0.5,0-1.1-0.2-1.5C202,24.4,201.7,23.9,201.3,23.5z"/>
</g>
<path class="st0" d="M204.5,6.5c0-0.6-0.2-1.1-0.5-1.6c-0.3-0.7-0.7-1.4-1.1-2.1c-0.4-0.7-0.9-1.3-1.2-1.8s-0.6-0.8-0.6-0.9
	s-0.4,0.2-0.8,0.5s-1,0.7-1.6,1.1c-0.6,0.4-1.1,0.9-1.6,1.4c-0.4,0.3-0.7,0.8-0.9,1.3c-0.1,0.4,0,0.8,0.1,1.2
	c0.2,0.4,0.4,0.8,0.8,1.1c0.4,0.4,0.8,0.7,1.3,0.9c0.5,0.3,1.1,0.5,1.6,0.6c0.5,0.1,1.1,0.2,1.7,0.2c0.5,0,1-0.1,1.4-0.3
	c0.4-0.1,0.7-0.4,1-0.7C204.3,7.2,204.4,6.8,204.5,6.5z"/>
</svg>
