<svg id="Layer_1" data-name="Layer 1" xmlns="http://www.w3.org/2000/svg" viewBox="0 0 222 33.69"><defs><style>.cls-1{fill:#6cab36;}.cls-2{fill:#fff;}</style></defs><title>logo</title><path class="cls-1" d="M16.9,29.5a16.25,16.25,0,0,1-6.32,1.07C4.26,30.58,0,26.7,0,20.38a14,14,0,0,1,6-12,15,15,0,0,1,8.8-2.55,11.38,11.38,0,0,1,5.22,1L18.67,11a10.59,10.59,0,0,0-4.33-.78,8.54,8.54,0,0,0-5.47,1.85,9.68,9.68,0,0,0-3.3,7.71c0,3.8,2.13,6.35,6.35,6.35a12.63,12.63,0,0,0,4.55-.78Z" transform="translate(0 -2)"/><path class="cls-1" d="M33.68,20H25.16l-1.1,5.79h9.55l-0.82,4.36H18.13L22.67,6.25H36.84L36,10.62H27l-1,5.12H34.5Z" transform="translate(0 -2)"/><path class="cls-2" d="M54,29.58a17,17,0,0,1-6.35,1c-6.46,0-10.94-3.92-10.94-10.26,0-5.79,2.63-9.91,6.43-12.21a16.14,16.14,0,0,1,8.67-2.24,12.84,12.84,0,0,1,5.29,1l-1.6,4.9A13.06,13.06,0,0,0,51.29,11a8.08,8.08,0,0,0-4.86,1.49,8.66,8.66,0,0,0-3.16,7.1c0,3.62,2.27,5.75,6,5.75a11.87,11.87,0,0,0,4.33-.71Z" transform="translate(0 -2)"/><path class="cls-2" d="M72,20.52H63.58L62.72,25h9.45l-1,5.14H55.69L60.2,6.25h15l-1,5.15H65.32l-0.78,4H73Z" transform="translate(0 -2)"/><path class="cls-2" d="M73.91,30.18L78.42,6.25h7.21l2.16,7.21c0.93,3.19,1.6,5.93,2.2,8.84H90.1a61.93,61.93,0,0,1,1.14-9.06l1.31-7h5.65L93.65,30.18H87.33l-2.41-7.81c-1-3.37-1.71-5.75-2.38-9H82.39c-0.25,2.38-.89,6.21-1.63,10.19l-1.24,6.6H73.91Z" transform="translate(0 -2)"/><path class="cls-2" d="M105.12,11.54h-6l1-5.29h18.17l-1,5.29h-6.14l-3.51,18.64h-6Z" transform="translate(0 -2)"/><path class="cls-2" d="M120.35,6.75a30.52,30.52,0,0,1,6.88-.67,14.41,14.41,0,0,1,6.57,1.24,5.39,5.39,0,0,1,3,5c0,3.58-2.24,5.61-5.29,6.71l0,0.11c1.32,0.68,1.88,2.16,2.13,4.19,0.32,2.42.5,5.89,1,6.89h-6.22a36.83,36.83,0,0,1-.71-5.6c-0.25-2.7-1.14-3.41-3-3.41h-1.1l-1.7,9h-6Zm4.09,9.94h1.88c2.34,0,4.22-1.35,4.22-3.48,0-1.63-1.5-2.38-3.27-2.38a9.32,9.32,0,0,0-1.77.14Z" transform="translate(0 -2)"/><path class="cls-2" d="M144.38,24.54L142,30.18h-6.5L146.87,6.25h7.92l2.56,23.93H151l-0.29-5.64h-6.28ZM150.45,20l-0.25-4.4c-0.11-1.35-.18-3.34-0.32-4.83h-0.07c-0.61,1.49-1.28,3.52-1.88,4.83L146.09,20h4.37Z" transform="translate(0 -2)"/><path class="cls-2" d="M163.38,6.25h6.07l-3.52,18.64h9l-1,5.29h-15Z" transform="translate(0 -2)"/><path class="cls-1" d="M204.5,8.47A3.78,3.78,0,0,0,204,6.83a23.77,23.77,0,0,0-1.14-2.11c-0.42-.69-0.85-1.35-1.17-1.84s-0.56-.81-0.61-0.88-0.37.22-.8,0.52-1,.69-1.6,1.13a16.63,16.63,0,0,0-1.65,1.41,3,3,0,0,0-.89,1.31,2.18,2.18,0,0,0,.14,1.15,3.77,3.77,0,0,0,.75,1.11,5.92,5.92,0,0,0,1.26.94,6.88,6.88,0,0,0,1.63.64,6.2,6.2,0,0,0,1.68.18,4.18,4.18,0,0,0,1.42-.27,2.55,2.55,0,0,0,1-.67A1.75,1.75,0,0,0,204.5,8.47Z" transform="translate(0 -2)"/><path class="cls-2" d="M206.11,13.61a6.11,6.11,0,0,0,.65.55,6.28,6.28,0,0,0,.72.46,7.3,7.3,0,0,0,.79.36,6.37,6.37,0,0,0,.82.26,5.7,5.7,0,0,0,.82.15,5.15,5.15,0,0,0,.8,0,4.45,4.45,0,0,0,.75-0.09,3.64,3.64,0,0,0,.69-0.22,3.51,3.51,0,0,0,1.24-1.16,13.46,13.46,0,0,0,1-1.8c0.31-.61.56-1.2,0.73-1.65s0.29-.76.31-0.81l-1.3-.13c-0.72-.07-1.67-0.14-2.66-0.2s-2-.09-2.94-0.07a7.11,7.11,0,0,0-2.09.26,2.44,2.44,0,0,0-1,.7,1.8,1.8,0,0,0-.41,1,2.28,2.28,0,0,0,.2,1.17A4.06,4.06,0,0,0,206.11,13.61Z" transform="translate(0 -2)"/><path class="cls-2" d="M194.36,9.68a2,2,0,0,0,.52-1,2.12,2.12,0,0,0-.11-1.13A3.28,3.28,0,0,0,194,6.4a9.19,9.19,0,0,0-1.91-1.28c-0.86-.47-1.86-1-2.84-1.4s-1.91-.85-2.62-1.15L185.34,2c0,0.06,0,.41.06,0.93s0.13,1.21.24,1.94a15.07,15.07,0,0,0,.51,2.24A4.65,4.65,0,0,0,187,8.85a5.52,5.52,0,0,0,.6.55,6,6,0,0,0,.7.46,6.76,6.76,0,0,0,.78.36,7.78,7.78,0,0,0,.83.26,6.15,6.15,0,0,0,.86.15,5.51,5.51,0,0,0,.85,0,4.48,4.48,0,0,0,.82-0.08,4,4,0,0,0,.76-0.2A3,3,0,0,0,194.36,9.68Z" transform="translate(0 -2)"/><path class="cls-2" d="M220.76,21.34c-0.68-.48-1.59-1.09-2.56-1.71s-2-1.25-2.9-1.76A11.38,11.38,0,0,0,213,16.82a5.91,5.91,0,0,0-1.68-.17,3.84,3.84,0,0,0-1.4.32,2.55,2.55,0,0,0-1,.77,2.07,2.07,0,0,0-.42,1.15,2.81,2.81,0,0,0,.27,1.35,4.49,4.49,0,0,0,.9,1.29A6.37,6.37,0,0,0,211,22.6a6.51,6.51,0,0,0,1.75.69,9,9,0,0,0,2.47.1c1-.07,2-0.22,3-0.39s1.88-.36,2.55-0.51,1.12-.26,1.2-0.28Z" transform="translate(0 -2)"/><path class="cls-2" d="M181.62,15.2a10.56,10.56,0,0,0,2.45,1.12,6.48,6.48,0,0,0,1.9.18,5.2,5.2,0,0,0,1.66-.33,3.48,3.48,0,0,0,1.23-.79,2.27,2.27,0,0,0,.63-1.15,2.32,2.32,0,0,0-.08-1.29,3.4,3.4,0,0,0-.73-1.2,5,5,0,0,0-1.27-1,6.63,6.63,0,0,0-1.67-.66,11,11,0,0,0-2.58-.17c-1,0-2.24.12-3.36,0.23s-2.21.26-3,.38l-1.5.22c0.07,0.06.49,0.4,1.12,0.87s1.47,1.1,2.38,1.74S180.69,14.66,181.62,15.2Z" transform="translate(0 -2)"/><path class="cls-2" d="M214.1,29.71A28.87,28.87,0,0,0,213,26.83a7.45,7.45,0,0,0-1.25-2.06,6.22,6.22,0,0,0-.7-0.62,7.88,7.88,0,0,0-.78-0.51,6.52,6.52,0,0,0-.84-0.4A7,7,0,0,0,208.6,23a6.18,6.18,0,0,0-.88-0.15,5.41,5.41,0,0,0-1.69.1,4.14,4.14,0,0,0-.76.27,2.88,2.88,0,0,0-1.13.9,2.48,2.48,0,0,0-.48,1.26,3.18,3.18,0,0,0,.21,1.45,4.71,4.71,0,0,0,.94,1.47,10.45,10.45,0,0,0,2.29,1.63c1,0.59,2.23,1.2,3.39,1.75s2.29,1.05,3.15,1.42l1.56,0.66c0-.09-0.15-0.61-0.34-1.36S214.42,30.71,214.1,29.71Z" transform="translate(0 -2)"/><path class="cls-2" d="M191.32,19.82a4.64,4.64,0,0,0-.65-0.61,5.53,5.53,0,0,0-.76-0.51,5.38,5.38,0,0,0-.83-0.39A6.2,6.2,0,0,0,188.2,18a6.69,6.69,0,0,0-.92-0.15,6.06,6.06,0,0,0-.92,0,6.29,6.29,0,0,0-.9.11,5.3,5.3,0,0,0-.85.25,6,6,0,0,0-1.81,1.37,24.15,24.15,0,0,0-1.88,2.23c-0.6.8-1.14,1.59-1.54,2.21s-0.68,1.05-.73,1.13l1.73,0.11c1,0.05,2.19.11,3.49,0.13s2.63,0,3.78-.07a8.8,8.8,0,0,0,2.66-.47,3.63,3.63,0,0,0,1.31-1,2.78,2.78,0,0,0,.61-1.27,2.9,2.9,0,0,0-.1-1.4A4,4,0,0,0,191.32,19.82Z" transform="translate(0 -2)"/><path class="cls-2" d="M201.26,25.54a6.19,6.19,0,0,0-1.42-1.14,6.82,6.82,0,0,0-1.82-.72,6.39,6.39,0,0,0-1.9-.16,4.9,4.9,0,0,0-1.65.4,3.63,3.63,0,0,0-1.24.9,2.87,2.87,0,0,0-.64,1.35,5.25,5.25,0,0,0,.37,2.26,29.8,29.8,0,0,0,1.22,3.06c0.47,1,1,2,1.37,2.8s0.7,1.3.74,1.4c0.08-.06.5-0.42,1.09-1s1.32-1.24,2.05-2a21.74,21.74,0,0,0,2-2.29,4.64,4.64,0,0,0,1-1.93,3.42,3.42,0,0,0-.22-1.55A4.5,4.5,0,0,0,201.26,25.54Z" transform="translate(0 -2)"/></svg>